<svg xmlns="http://www.w3.org/2000/svg" width="100%" height="100%" viewBox="0 0 200 200"><defs><linearGradient id="ninjaGradient" x1="0%" x2="0%" y1="0%" y2="100%"><stop offset="0%" stop-color="#F57E20"/><stop offset="100%" stop-color="#EF5E24"/></linearGradient></defs><circle cx="100" cy="100" r="100" fill="#424242"/><path fill="url(#ninjaGradient)" d="M 135 40 L 95 40 A 60 60 0 0 0 35 100 A 60 60 0 0 0 95 160 L 135 160 L 135 115 L 95 115 A 15 15 0 0 1 80 100 A 15 15 0 0 1 95 85 L 135 85 Z"/><path fill="#fff" d="M 83 94 L 100 98 Q 92 106 80 96 Z"/><path fill="#fff" d="M 127 94 L 110 98 Q 118 106 130 96 Z"/></svg>